<svg width="24" height="20" viewBox="0 0 24 20" fill="none" xmlns="http://www.w3.org/2000/svg">
<path d="M0 0.763469C0 1.18014 0.341199 1.53649 0.742762 1.53649H4.13378L5.73917 12.706C5.95023 14.1504 6.70241 15.0558 8.15753 15.0558H19.8671C20.2579 15.0558 20.5991 14.7303 20.5991 14.2932C20.5991 13.8557 20.2579 13.5302 19.8671 13.5302H8.32792C7.75597 13.5302 7.40493 13.1231 7.3146 12.5028L7.15406 11.4347H19.8867C21.3517 11.4347 22.1043 10.5189 22.315 9.06441L23.1177 3.6828C23.139 3.555 23.1524 3.42599 23.1579 3.2965C23.1579 2.80821 22.7966 2.47227 22.2447 2.47227H5.86974L5.66896 1.18058C5.56879 0.397143 5.28795 0 4.26478 0H0.742333C0.341199 0 0 0.356343 0 0.763469ZM7.31503 18.3519C7.31503 19.2777 8.03767 19.9999 8.95039 19.9999C9.16434 20.0017 9.37651 19.9603 9.57453 19.8781C9.77254 19.796 9.95244 19.6746 10.1037 19.5212C10.255 19.3679 10.3747 19.1855 10.4558 18.9847C10.5368 18.7839 10.5777 18.5688 10.5759 18.3519C10.5768 18.1352 10.5354 17.9205 10.454 17.7201C10.3726 17.5198 10.2529 17.3377 10.1018 17.1845C9.95069 17.0313 9.77114 16.9099 9.57351 16.8275C9.37589 16.745 9.1641 16.703 8.95039 16.7039C8.03767 16.7039 7.31503 17.4365 7.31503 18.3519ZM16.6965 18.3519C16.6965 19.2777 17.429 19.9999 18.3319 19.9999C19.245 19.9999 19.9672 19.2777 19.9672 18.3519C19.9672 17.4361 19.245 16.7039 18.3319 16.7039C17.429 16.7039 16.6965 17.4365 16.6965 18.3519Z" fill="#2D2D2D"/>
</svg>
