<svg width="11" height="12" viewBox="0 0 11 12" fill="none" xmlns="http://www.w3.org/2000/svg">
<path d="M10.9575 6.17011C10.9575 6.34104 10.8896 6.50497 10.7688 6.62583C10.6479 6.7467 10.484 6.8146 10.313 6.8146H6.23128V10.8964C6.23128 11.0673 6.16338 11.2312 6.04252 11.3521C5.92165 11.4729 5.75772 11.5408 5.5868 11.5408C5.41587 11.5408 5.25194 11.4729 5.13107 11.3521C5.01021 11.2312 4.94231 11.0673 4.94231 10.8964V6.8146H0.860552C0.689623 6.8146 0.525695 6.7467 0.404831 6.62583C0.283966 6.50497 0.216064 6.34104 0.216064 6.17011C0.216064 5.99918 0.283966 5.83525 0.404831 5.71439C0.525695 5.59352 0.689623 5.52562 0.860552 5.52562H4.94231V1.44387C4.94231 1.27294 5.01021 1.10901 5.13107 0.988144C5.25194 0.867279 5.41587 0.799377 5.5868 0.799377C5.75772 0.799377 5.92165 0.867279 6.04252 0.988144C6.16338 1.10901 6.23128 1.27294 6.23128 1.44387V5.52562H10.313C10.484 5.52562 10.6479 5.59352 10.7688 5.71439C10.8896 5.83525 10.9575 5.99918 10.9575 6.17011Z" fill="black"/>
</svg>
